<mxfile host="app.diagrams.net" modified="2022-10-13T13:44:58.237Z" agent="5.0 (Macintosh; Intel Mac OS X 10_15_7) AppleWebKit/537.36 (KHTML, like Gecko) Chrome/105.0.0.0 Safari/537.36" etag="wXSG0eqRlVNvAH8IMUC6" version="20.4.0" type="github">
  <diagram id="3228e29e-7158-1315-38df-8450db1d8a1d" name="Page-1">
    <mxGraphModel dx="509" dy="1941" grid="0" gridSize="10" guides="1" tooltips="1" connect="1" arrows="1" fold="1" page="1" pageScale="1" pageWidth="600" pageHeight="650" background="#EFF1F3" math="0" shadow="0">
      <root>
        <mxCell id="0" />
        <mxCell id="1" parent="0" />
        <mxCell id="Zxyhw3o_makbFYxT9f12-17" value="" style="rounded=1;whiteSpace=wrap;html=1;dashed=1;strokeWidth=5;fillColor=none;" parent="1" vertex="1">
          <mxGeometry x="35" y="-364" width="528" height="329" as="geometry" />
        </mxCell>
        <mxCell id="Zxyhw3o_makbFYxT9f12-14" value="" style="rounded=1;whiteSpace=wrap;html=1;strokeColor=none;fontSize=18;labelBackgroundColor=none;fillColor=#E6D7C2;" parent="1" vertex="1">
          <mxGeometry x="98" y="-266" width="400" height="217" as="geometry" />
        </mxCell>
        <mxCell id="pCjDIv-f0e-wGzuPs2K4-11" value="" style="rounded=1;whiteSpace=wrap;html=1;fillColor=#EFF1F3;" parent="1" vertex="1">
          <mxGeometry x="234" y="-182" width="120" height="42" as="geometry" />
        </mxCell>
        <mxCell id="Zxyhw3o_makbFYxT9f12-7" value="" style="rounded=1;whiteSpace=wrap;html=1;dashed=1;strokeWidth=5;fillColor=none;" parent="1" vertex="1">
          <mxGeometry x="35" y="-633" width="530" height="256" as="geometry" />
        </mxCell>
        <mxCell id="Zxyhw3o_makbFYxT9f12-2" value="&lt;font color=&quot;#ffffff&quot; style=&quot;font-size: 18px&quot;&gt;socket_fd&lt;/font&gt;" style="rounded=1;whiteSpace=wrap;html=1;strokeColor=none;labelBackgroundColor=none;fillColor=#535E80;" parent="1" vertex="1">
          <mxGeometry x="57" y="-404" width="483" height="88" as="geometry" />
        </mxCell>
        <mxCell id="Zxyhw3o_makbFYxT9f12-11" value="&lt;font style=&quot;font-size: 24px&quot;&gt;用户态&lt;/font&gt;" style="text;html=1;strokeColor=none;fillColor=none;align=center;verticalAlign=middle;whiteSpace=wrap;rounded=0;dashed=1;" parent="1" vertex="1">
          <mxGeometry x="38" y="-618" width="132.5" height="20" as="geometry" />
        </mxCell>
        <mxCell id="Zxyhw3o_makbFYxT9f12-12" value="&lt;font style=&quot;font-size: 24px&quot;&gt;内核态&lt;/font&gt;" style="text;html=1;strokeColor=none;align=center;verticalAlign=middle;whiteSpace=wrap;rounded=0;dashed=1;labelBackgroundColor=none;" parent="1" vertex="1">
          <mxGeometry x="53.25" y="-298" width="102" height="20" as="geometry" />
        </mxCell>
        <mxCell id="2K_hwno0CQuRTRYKf1G6-3" style="edgeStyle=orthogonalEdgeStyle;rounded=1;orthogonalLoop=1;jettySize=auto;html=1;exitX=0.5;exitY=1;exitDx=0;exitDy=0;exitPerimeter=0;fontColor=#FFFFFF;strokeWidth=3;dashed=1;strokeColor=#808080;endArrow=none;endFill=0;startArrow=classic;startFill=1;" parent="1" source="222Te1zxGotTQ1m0-dcR-3" target="Zxyhw3o_makbFYxT9f12-2" edge="1">
          <mxGeometry relative="1" as="geometry" />
        </mxCell>
        <mxCell id="222Te1zxGotTQ1m0-dcR-3" value="" style="aspect=fixed;pointerEvents=1;shadow=0;dashed=0;html=1;strokeColor=none;labelPosition=center;verticalLabelPosition=bottom;verticalAlign=top;align=center;shape=mxgraph.mscae.enterprise.code_file;fillColor=#4A919B;" parent="1" vertex="1">
          <mxGeometry x="110.00000000000003" y="-581" width="89.18" height="91" as="geometry" />
        </mxCell>
        <mxCell id="ZfyCddCFMZxiEYEglCBR-1" value="&lt;font color=&quot;#333333&quot; face=&quot;open sans, clear sans, helvetica neue, helvetica, arial, sans-serif&quot;&gt;&lt;span style=&quot;font-size: 18px&quot;&gt;tcp_recvmsg 逻辑&lt;/span&gt;&lt;/font&gt;" style="text;html=1;strokeColor=none;fillColor=none;align=center;verticalAlign=middle;whiteSpace=wrap;rounded=0;" parent="1" vertex="1">
          <mxGeometry x="110" y="-91" width="156" height="48" as="geometry" />
        </mxCell>
        <mxCell id="ZfyCddCFMZxiEYEglCBR-2" value="是" style="rounded=1;whiteSpace=wrap;html=1;fillColor=#9AC7BF;" parent="1" vertex="1">
          <mxGeometry x="337" y="-182" width="16" height="42" as="geometry" />
        </mxCell>
        <mxCell id="ZfyCddCFMZxiEYEglCBR-3" value="&lt;font color=&quot;#333333&quot; face=&quot;open sans, clear sans, helvetica neue, helvetica, arial, sans-serif&quot;&gt;&lt;span style=&quot;font-size: 18px&quot;&gt;接收缓冲区&lt;/span&gt;&lt;/font&gt;" style="text;html=1;strokeColor=none;fillColor=none;align=center;verticalAlign=middle;whiteSpace=wrap;rounded=0;" parent="1" vertex="1">
          <mxGeometry x="240" y="-134" width="110" height="43" as="geometry" />
        </mxCell>
        <mxCell id="ZfyCddCFMZxiEYEglCBR-4" value="小" style="rounded=1;whiteSpace=wrap;html=1;fillColor=#9AC7BF;" parent="1" vertex="1">
          <mxGeometry x="320" y="-182" width="16" height="42" as="geometry" />
        </mxCell>
        <mxCell id="ZfyCddCFMZxiEYEglCBR-5" value="白" style="rounded=1;whiteSpace=wrap;html=1;fillColor=#9AC7BF;" parent="1" vertex="1">
          <mxGeometry x="303" y="-182" width="16" height="42" as="geometry" />
        </mxCell>
        <mxCell id="ZfyCddCFMZxiEYEglCBR-6" value="我" style="rounded=1;whiteSpace=wrap;html=1;fillColor=#9AC7BF;" parent="1" vertex="1">
          <mxGeometry x="340" y="-256" width="16" height="42" as="geometry" />
        </mxCell>
        <mxCell id="ZfyCddCFMZxiEYEglCBR-10" value="head" style="text;html=1;strokeColor=none;fillColor=none;align=center;verticalAlign=middle;whiteSpace=wrap;rounded=0;" parent="1" vertex="1">
          <mxGeometry x="356" y="-174" width="35" height="20" as="geometry" />
        </mxCell>
        <mxCell id="2K_hwno0CQuRTRYKf1G6-5" style="edgeStyle=orthogonalEdgeStyle;rounded=1;orthogonalLoop=1;jettySize=auto;html=1;exitX=0.5;exitY=1;exitDx=0;exitDy=0;exitPerimeter=0;fontColor=#FFFFFF;strokeWidth=3;dashed=1;strokeColor=#808080;startArrow=classic;startFill=1;endArrow=none;endFill=0;" parent="1" source="2K_hwno0CQuRTRYKf1G6-2" target="Zxyhw3o_makbFYxT9f12-2" edge="1">
          <mxGeometry relative="1" as="geometry" />
        </mxCell>
        <mxCell id="2K_hwno0CQuRTRYKf1G6-2" value="" style="aspect=fixed;pointerEvents=1;shadow=0;dashed=0;html=1;strokeColor=none;labelPosition=center;verticalLabelPosition=bottom;verticalAlign=top;align=center;shape=mxgraph.mscae.enterprise.code_file;fillColor=#535E80;" parent="1" vertex="1">
          <mxGeometry x="401" y="-581" width="89.18" height="91" as="geometry" />
        </mxCell>
        <mxCell id="2K_hwno0CQuRTRYKf1G6-6" value="&lt;span style=&quot;font-size: 18px;&quot;&gt;&lt;font color=&quot;#535e80&quot;&gt;&lt;b&gt;并发recv()&lt;br&gt;同一个socket_fd&lt;/b&gt;&lt;/font&gt;&lt;/span&gt;" style="text;html=1;strokeColor=none;fillColor=none;align=center;verticalAlign=middle;whiteSpace=wrap;rounded=0;fontColor=#FFFFFF;" parent="1" vertex="1">
          <mxGeometry x="29" y="-466" width="157" height="38" as="geometry" />
        </mxCell>
        <mxCell id="2K_hwno0CQuRTRYKf1G6-8" value="" style="curved=1;endArrow=classic;html=1;rounded=1;dashed=1;strokeColor=#808080;strokeWidth=3;fontColor=#535E80;" parent="1" edge="1">
          <mxGeometry width="50" height="50" relative="1" as="geometry">
            <mxPoint x="360" y="-178" as="sourcePoint" />
            <mxPoint x="360" y="-228" as="targetPoint" />
            <Array as="points">
              <mxPoint x="410" y="-178" />
              <mxPoint x="360" y="-228" />
            </Array>
          </mxGeometry>
        </mxCell>
        <mxCell id="2K_hwno0CQuRTRYKf1G6-9" value="是" style="rounded=1;whiteSpace=wrap;html=1;fillColor=#9AC7BF;direction=west;" parent="1" vertex="1">
          <mxGeometry x="209" y="-496" width="16" height="42" as="geometry" />
        </mxCell>
        <mxCell id="mbPCxKG1Thf6TpbuLvrC-1" value="小" style="rounded=1;whiteSpace=wrap;html=1;fillColor=#9AC7BF;direction=west;" parent="1" vertex="1">
          <mxGeometry x="337" y="-496" width="16" height="42" as="geometry" />
        </mxCell>
        <mxCell id="mbPCxKG1Thf6TpbuLvrC-2" value="白" style="rounded=1;whiteSpace=wrap;html=1;fillColor=#9AC7BF;direction=west;" parent="1" vertex="1">
          <mxGeometry x="353" y="-496" width="16" height="42" as="geometry" />
        </mxCell>
        <mxCell id="mbPCxKG1Thf6TpbuLvrC-3" value="点赞" style="rounded=1;whiteSpace=wrap;html=1;fillColor=#538AAF;direction=west;" parent="1" vertex="1">
          <mxGeometry x="225" y="-496" width="16" height="42" as="geometry" />
        </mxCell>
        <mxCell id="mbPCxKG1Thf6TpbuLvrC-4" value="走" style="rounded=1;whiteSpace=wrap;html=1;fillColor=#538AAF;direction=west;" parent="1" vertex="1">
          <mxGeometry x="241" y="-496" width="16" height="42" as="geometry" />
        </mxCell>
        <mxCell id="mbPCxKG1Thf6TpbuLvrC-5" value="在看" style="rounded=1;whiteSpace=wrap;html=1;fillColor=#538AAF;direction=west;" parent="1" vertex="1">
          <mxGeometry x="369" y="-496" width="16" height="42" as="geometry" />
        </mxCell>
        <mxCell id="mbPCxKG1Thf6TpbuLvrC-6" value="点赞" style="rounded=1;whiteSpace=wrap;html=1;fillColor=#538AAF;" parent="1" vertex="1">
          <mxGeometry x="286" y="-182" width="16" height="42" as="geometry" />
        </mxCell>
        <mxCell id="mbPCxKG1Thf6TpbuLvrC-7" value="在看" style="rounded=1;whiteSpace=wrap;html=1;fillColor=#538AAF;" parent="1" vertex="1">
          <mxGeometry x="269" y="-182" width="16" height="42" as="geometry" />
        </mxCell>
        <mxCell id="mbPCxKG1Thf6TpbuLvrC-8" value="走" style="rounded=1;whiteSpace=wrap;html=1;fillColor=#538AAF;" parent="1" vertex="1">
          <mxGeometry x="252" y="-182" width="16" height="42" as="geometry" />
        </mxCell>
        <mxCell id="-aCimDDTzaam5AJWqJPK-1" value="" style="shape=image;verticalLabelPosition=bottom;labelBackgroundColor=default;verticalAlign=top;aspect=fixed;imageAspect=0;image=data:image/svg+xml,PHN2ZyB4bWxuczp4bGluaz0iaHR0cDovL3d3dy53My5vcmcvMTk5OS94bGluayIgeG1sbnM9Imh0dHA6Ly93d3cudzMub3JnLzIwMDAvc3ZnIiBoZWlnaHQ9IjIwMCIgd2lkdGg9IjIwMCIgdmVyc2lvbj0iMS4xIiB2aWV3Qm94PSIwIDAgMTAyNCAxMDI0IiBjbGFzcz0iaWNvbiI+PHBhdGggZmlsbD0iIzUzNUU4MCIgZD0iTTM0MC40MTk1ODQgMzU3LjYxNDU5MmMwLTg2LjM0Nzc3NiA3OS45MTgwOC0xNjYuNTczMDU2IDE2NS45NDMyOTYtMTY2LjU3MzA1NnMxNjUuOTQ4NDE2IDgwLjIyNDI1NiAxNjUuOTQ4NDE2IDE2Ni41NzMwNTZ2NjUuNzIwMzJoODkuMDkyMDk2di02NC40MDk2YzAtMTQxLjM4Nzc3Ni0xMTQuMTkwMzM2LTI1Ni4wMTMzMTItMjU1LjA0MDUxMi0yNTYuMDEzMzEyLTE0MC44NDUwNTYgMC0yNTUuMDMwMjcyIDExNC42MjA0MTYtMjU1LjAzMDI3MiAyNTYuMDEzMzEydjY0LjQwOTZoODkuMDg2OTc2di02NS43MjAzMnogbTAgME03NDIuMDA5ODU2IDQ1Ni4wNDE0NzJIMjcwLjcyMjA0OGMtMzkuNTIxMjggMC03MS41NTIgMzIuMTU4NzItNzEuNTUyIDcxLjgyODQ4Vjg1MC4yNzg0YzAgMzkuNjY5NzYgMzIuMDM1ODQgNzEuODMzNiA3MS41NTIgNzEuODMzNmg0NzEuMjg3ODA4YzM5LjUyMTI4IDAgNzEuNTU3MTItMzIuMTYzODQgNzEuNTU3MTItNzEuODMzNlY1MjcuODY4OTI4Yy0wLjAwMTAyNC0zOS42NjM2MTYtMzIuMDQwOTYtNzEuODI3NDU2LTcxLjU1NzEyLTcxLjgyNzQ1NnpNNTUxLjkyMDY0IDc3MS4zODAyMjRoLTkwLjk3NjI1NmwxOS45NjgtNzUuMDk1MDRjLTE5LjUxNzQ0LTkuNDk3Ni0zMi45ODMwNC0yOS41NzgyNC0zMi45ODMwNC01Mi44MTc5MiAwLTMyLjM5OTM2IDI2LjE2MzItNTguNjcwMDggNTguNDM0NTYtNTguNjcwMDggMzIuMjc2NDggMCA1OC40Mzk2OCAyNi4yNjU2IDU4LjQzOTY4IDU4LjY3MDA4IDAgMjMuMTkzNi0xMy40MDQxNiA0My4yMzMyOC0zMi44NjUyOCA1Mi43NTY0OGwxOS45ODIzMzYgNzUuMTU2NDh6IG0wIDAiLz48L3N2Zz4=;" parent="1" vertex="1">
          <mxGeometry x="269.75" y="-316.5" width="50.5" height="50.5" as="geometry" />
        </mxCell>
        <mxCell id="dDiINAwJq7zeB4yAfMJd-1" value="一波" style="rounded=1;whiteSpace=wrap;html=1;fillColor=#538AAF;" vertex="1" parent="1">
          <mxGeometry x="236" y="-182" width="16" height="42" as="geometry" />
        </mxCell>
        <mxCell id="dDiINAwJq7zeB4yAfMJd-5" value="我" style="rounded=1;whiteSpace=wrap;html=1;fillColor=#9AC7BF;direction=west;" vertex="1" parent="1">
          <mxGeometry x="193" y="-496" width="16" height="42" as="geometry" />
        </mxCell>
        <mxCell id="dDiINAwJq7zeB4yAfMJd-6" value="一波" style="rounded=1;whiteSpace=wrap;html=1;fillColor=#538AAF;direction=west;" vertex="1" parent="1">
          <mxGeometry x="257" y="-496" width="16" height="42" as="geometry" />
        </mxCell>
      </root>
    </mxGraphModel>
  </diagram>
</mxfile>
